<mxfile host="Electron" modified="2023-05-08T07:58:39.662Z" agent="Mozilla/5.0 (Macintosh; Intel Mac OS X 10_15_7) AppleWebKit/537.36 (KHTML, like Gecko) draw.io/21.2.8 Chrome/112.0.5615.165 Electron/24.2.0 Safari/537.36" etag="-9Wzgihd_iDKZIKYc36q" version="21.2.8" type="device" pages="2">
  <diagram name="Page-1" id="ndZbrMPuExqpBg1-ygDj">
    <mxGraphModel dx="2261" dy="854" grid="1" gridSize="10" guides="1" tooltips="1" connect="1" arrows="1" fold="1" page="1" pageScale="1" pageWidth="827" pageHeight="1169" math="0" shadow="0">
      <root>
        <mxCell id="0" />
        <mxCell id="1" parent="0" />
        <mxCell id="WXWv_Z7D5VTuuF9bMm1k-102" value="" style="rounded=0;whiteSpace=wrap;html=1;fillColor=none;strokeColor=#FFD966;strokeWidth=3;dashed=1;" parent="1" vertex="1">
          <mxGeometry x="50" y="610" width="420" height="210" as="geometry" />
        </mxCell>
        <mxCell id="WXWv_Z7D5VTuuF9bMm1k-104" value="" style="rounded=0;whiteSpace=wrap;html=1;fillColor=none;strokeColor=#000000;strokeWidth=3;dashed=1;" parent="1" vertex="1">
          <mxGeometry x="480" y="704" width="340" height="316" as="geometry" />
        </mxCell>
        <mxCell id="WXWv_Z7D5VTuuF9bMm1k-103" value="" style="rounded=0;whiteSpace=wrap;html=1;fillColor=none;strokeColor=#EA6B66;strokeWidth=3;dashed=1;" parent="1" vertex="1">
          <mxGeometry x="510" y="580" width="300" height="210" as="geometry" />
        </mxCell>
        <mxCell id="WXWv_Z7D5VTuuF9bMm1k-101" value="" style="rounded=0;whiteSpace=wrap;html=1;fillColor=none;strokeColor=#7EA6E0;strokeWidth=3;dashed=1;" parent="1" vertex="1">
          <mxGeometry x="130" y="500" width="580" height="190" as="geometry" />
        </mxCell>
        <mxCell id="WXWv_Z7D5VTuuF9bMm1k-49" style="edgeStyle=orthogonalEdgeStyle;rounded=0;orthogonalLoop=1;jettySize=auto;html=1;" parent="1" source="WXWv_Z7D5VTuuF9bMm1k-45" target="WXWv_Z7D5VTuuF9bMm1k-46" edge="1">
          <mxGeometry relative="1" as="geometry" />
        </mxCell>
        <mxCell id="WXWv_Z7D5VTuuF9bMm1k-50" style="edgeStyle=orthogonalEdgeStyle;rounded=0;orthogonalLoop=1;jettySize=auto;html=1;" parent="1" source="WXWv_Z7D5VTuuF9bMm1k-45" target="WXWv_Z7D5VTuuF9bMm1k-47" edge="1">
          <mxGeometry relative="1" as="geometry" />
        </mxCell>
        <mxCell id="WXWv_Z7D5VTuuF9bMm1k-114" style="edgeStyle=orthogonalEdgeStyle;rounded=0;orthogonalLoop=1;jettySize=auto;html=1;entryX=0.16;entryY=0.55;entryDx=0;entryDy=0;entryPerimeter=0;exitX=1;exitY=0.5;exitDx=0;exitDy=0;" parent="1" source="WXWv_Z7D5VTuuF9bMm1k-115" target="WXWv_Z7D5VTuuF9bMm1k-113" edge="1">
          <mxGeometry relative="1" as="geometry" />
        </mxCell>
        <mxCell id="WXWv_Z7D5VTuuF9bMm1k-45" value="traefik" style="rounded=1;whiteSpace=wrap;html=1;" parent="1" vertex="1">
          <mxGeometry x="590" y="640" width="100" height="30" as="geometry" />
        </mxCell>
        <mxCell id="WXWv_Z7D5VTuuF9bMm1k-51" style="edgeStyle=orthogonalEdgeStyle;rounded=0;orthogonalLoop=1;jettySize=auto;html=1;" parent="1" source="WXWv_Z7D5VTuuF9bMm1k-46" target="WXWv_Z7D5VTuuF9bMm1k-48" edge="1">
          <mxGeometry relative="1" as="geometry" />
        </mxCell>
        <mxCell id="WXWv_Z7D5VTuuF9bMm1k-46" value="Backends" style="rounded=1;whiteSpace=wrap;html=1;fillColor=#dae8fc;strokeColor=#6c8ebf;" parent="1" vertex="1">
          <mxGeometry x="520" y="720" width="100" height="50" as="geometry" />
        </mxCell>
        <mxCell id="WXWv_Z7D5VTuuF9bMm1k-52" style="edgeStyle=orthogonalEdgeStyle;rounded=0;orthogonalLoop=1;jettySize=auto;html=1;" parent="1" source="WXWv_Z7D5VTuuF9bMm1k-47" target="WXWv_Z7D5VTuuF9bMm1k-48" edge="1">
          <mxGeometry relative="1" as="geometry" />
        </mxCell>
        <mxCell id="WXWv_Z7D5VTuuF9bMm1k-79" value=":3306" style="edgeLabel;html=1;align=center;verticalAlign=middle;resizable=0;points=[];" parent="WXWv_Z7D5VTuuF9bMm1k-52" vertex="1" connectable="0">
          <mxGeometry x="0.68" y="1" relative="1" as="geometry">
            <mxPoint x="19" y="4" as="offset" />
          </mxGeometry>
        </mxCell>
        <mxCell id="WXWv_Z7D5VTuuF9bMm1k-112" style="edgeStyle=orthogonalEdgeStyle;rounded=0;orthogonalLoop=1;jettySize=auto;html=1;entryX=0.05;entryY=0.488;entryDx=0;entryDy=0;entryPerimeter=0;" parent="1" source="WXWv_Z7D5VTuuF9bMm1k-47" target="WXWv_Z7D5VTuuF9bMm1k-111" edge="1">
          <mxGeometry relative="1" as="geometry" />
        </mxCell>
        <mxCell id="WXWv_Z7D5VTuuF9bMm1k-47" value="Backends" style="rounded=1;whiteSpace=wrap;html=1;fillColor=#d5e8d4;strokeColor=#82b366;" parent="1" vertex="1">
          <mxGeometry x="670" y="720" width="100" height="50" as="geometry" />
        </mxCell>
        <mxCell id="WXWv_Z7D5VTuuF9bMm1k-70" style="edgeStyle=orthogonalEdgeStyle;rounded=0;orthogonalLoop=1;jettySize=auto;html=1;" parent="1" source="WXWv_Z7D5VTuuF9bMm1k-48" target="WXWv_Z7D5VTuuF9bMm1k-69" edge="1">
          <mxGeometry relative="1" as="geometry" />
        </mxCell>
        <mxCell id="WXWv_Z7D5VTuuF9bMm1k-48" value="Database&lt;br&gt;MASTER" style="rounded=1;whiteSpace=wrap;html=1;" parent="1" vertex="1">
          <mxGeometry x="590" y="874" width="100" height="50" as="geometry" />
        </mxCell>
        <mxCell id="WXWv_Z7D5VTuuF9bMm1k-53" style="edgeStyle=orthogonalEdgeStyle;rounded=0;orthogonalLoop=1;jettySize=auto;html=1;" parent="1" source="WXWv_Z7D5VTuuF9bMm1k-55" target="WXWv_Z7D5VTuuF9bMm1k-57" edge="1">
          <mxGeometry relative="1" as="geometry" />
        </mxCell>
        <mxCell id="WXWv_Z7D5VTuuF9bMm1k-54" style="edgeStyle=orthogonalEdgeStyle;rounded=0;orthogonalLoop=1;jettySize=auto;html=1;" parent="1" source="WXWv_Z7D5VTuuF9bMm1k-55" target="WXWv_Z7D5VTuuF9bMm1k-59" edge="1">
          <mxGeometry relative="1" as="geometry" />
        </mxCell>
        <mxCell id="WXWv_Z7D5VTuuF9bMm1k-67" style="edgeStyle=orthogonalEdgeStyle;rounded=0;orthogonalLoop=1;jettySize=auto;html=1;exitX=1;exitY=0.5;exitDx=0;exitDy=0;" parent="1" source="WXWv_Z7D5VTuuF9bMm1k-55" target="WXWv_Z7D5VTuuF9bMm1k-66" edge="1">
          <mxGeometry relative="1" as="geometry" />
        </mxCell>
        <mxCell id="WXWv_Z7D5VTuuF9bMm1k-55" value="traefik&lt;br&gt;" style="rounded=1;whiteSpace=wrap;html=1;" parent="1" vertex="1">
          <mxGeometry x="170" y="630" width="100" height="50" as="geometry" />
        </mxCell>
        <mxCell id="WXWv_Z7D5VTuuF9bMm1k-121" style="edgeStyle=orthogonalEdgeStyle;rounded=0;orthogonalLoop=1;jettySize=auto;html=1;dashed=1;" parent="1" source="WXWv_Z7D5VTuuF9bMm1k-57" target="WXWv_Z7D5VTuuF9bMm1k-119" edge="1">
          <mxGeometry relative="1" as="geometry" />
        </mxCell>
        <mxCell id="WXWv_Z7D5VTuuF9bMm1k-57" value="Frontend" style="rounded=1;whiteSpace=wrap;html=1;fillColor=#dae8fc;strokeColor=#6c8ebf;" parent="1" vertex="1">
          <mxGeometry x="100" y="720" width="100" height="50" as="geometry" />
        </mxCell>
        <mxCell id="WXWv_Z7D5VTuuF9bMm1k-59" value="Frontend" style="rounded=1;whiteSpace=wrap;html=1;fillColor=#d5e8d4;strokeColor=#82b366;" parent="1" vertex="1">
          <mxGeometry x="240" y="720" width="100" height="50" as="geometry" />
        </mxCell>
        <mxCell id="WXWv_Z7D5VTuuF9bMm1k-63" style="edgeStyle=orthogonalEdgeStyle;rounded=0;orthogonalLoop=1;jettySize=auto;html=1;entryX=0.5;entryY=0;entryDx=0;entryDy=0;" parent="1" source="WXWv_Z7D5VTuuF9bMm1k-61" target="WXWv_Z7D5VTuuF9bMm1k-55" edge="1">
          <mxGeometry relative="1" as="geometry" />
        </mxCell>
        <mxCell id="WXWv_Z7D5VTuuF9bMm1k-77" value="HTTP:80" style="edgeLabel;html=1;align=center;verticalAlign=middle;resizable=0;points=[];" parent="WXWv_Z7D5VTuuF9bMm1k-63" vertex="1" connectable="0">
          <mxGeometry x="-0.275" y="-3" relative="1" as="geometry">
            <mxPoint x="-33" y="13" as="offset" />
          </mxGeometry>
        </mxCell>
        <mxCell id="WXWv_Z7D5VTuuF9bMm1k-61" value="LoadBalancer&lt;br&gt;Nginx" style="rounded=1;whiteSpace=wrap;html=1;" parent="1" vertex="1">
          <mxGeometry x="390" y="535" width="100" height="50" as="geometry" />
        </mxCell>
        <mxCell id="WXWv_Z7D5VTuuF9bMm1k-66" value="Static" style="rounded=1;whiteSpace=wrap;html=1;" parent="1" vertex="1">
          <mxGeometry x="360" y="720" width="100" height="50" as="geometry" />
        </mxCell>
        <mxCell id="WXWv_Z7D5VTuuF9bMm1k-69" value="Database&lt;br&gt;SLAVE" style="rounded=1;whiteSpace=wrap;html=1;" parent="1" vertex="1">
          <mxGeometry x="590" y="954" width="100" height="50" as="geometry" />
        </mxCell>
        <mxCell id="WXWv_Z7D5VTuuF9bMm1k-83" value="fs/static (ro)" style="rounded=0;whiteSpace=wrap;html=1;" parent="1" vertex="1">
          <mxGeometry x="360" y="780" width="100" height="30" as="geometry" />
        </mxCell>
        <mxCell id="WXWv_Z7D5VTuuF9bMm1k-84" value="fs/db/master (rw)" style="rounded=0;whiteSpace=wrap;html=1;" parent="1" vertex="1">
          <mxGeometry x="700" y="884" width="100" height="30" as="geometry" />
        </mxCell>
        <mxCell id="WXWv_Z7D5VTuuF9bMm1k-89" value="fs/fe (ro)" style="rounded=0;whiteSpace=wrap;html=1;" parent="1" vertex="1">
          <mxGeometry x="60" y="640" width="100" height="30" as="geometry" />
        </mxCell>
        <mxCell id="WXWv_Z7D5VTuuF9bMm1k-91" value="fs/db/slave (rw)" style="rounded=0;whiteSpace=wrap;html=1;" parent="1" vertex="1">
          <mxGeometry x="700" y="964" width="100" height="30" as="geometry" />
        </mxCell>
        <mxCell id="WXWv_Z7D5VTuuF9bMm1k-92" value="fs/be (ro)" style="rounded=0;whiteSpace=wrap;html=1;" parent="1" vertex="1">
          <mxGeometry x="485" y="640" width="100" height="30" as="geometry" />
        </mxCell>
        <mxCell id="WXWv_Z7D5VTuuF9bMm1k-97" value="fs/generated (ro)" style="rounded=0;whiteSpace=wrap;html=1;" parent="1" vertex="1">
          <mxGeometry x="520" y="782" width="250" height="30" as="geometry" />
        </mxCell>
        <mxCell id="WXWv_Z7D5VTuuF9bMm1k-98" value="fs/log (rw)" style="rounded=0;whiteSpace=wrap;html=1;" parent="1" vertex="1">
          <mxGeometry x="490" y="964" width="90" height="30" as="geometry" />
        </mxCell>
        <mxCell id="WXWv_Z7D5VTuuF9bMm1k-100" value="fs/static (ro)" style="rounded=0;whiteSpace=wrap;html=1;" parent="1" vertex="1">
          <mxGeometry x="390" y="590" width="100" height="30" as="geometry" />
        </mxCell>
        <mxCell id="WXWv_Z7D5VTuuF9bMm1k-105" value="revproxy" style="text;whiteSpace=wrap;html=1;" parent="1" vertex="1">
          <mxGeometry x="130" y="470" width="80" height="40" as="geometry" />
        </mxCell>
        <mxCell id="WXWv_Z7D5VTuuF9bMm1k-106" value="backend" style="text;whiteSpace=wrap;html=1;" parent="1" vertex="1">
          <mxGeometry x="747" y="545" width="80" height="40" as="geometry" />
        </mxCell>
        <mxCell id="WXWv_Z7D5VTuuF9bMm1k-107" value="frontend" style="text;whiteSpace=wrap;html=1;" parent="1" vertex="1">
          <mxGeometry x="50" y="585" width="80" height="40" as="geometry" />
        </mxCell>
        <mxCell id="WXWv_Z7D5VTuuF9bMm1k-108" value="db" style="text;whiteSpace=wrap;html=1;" parent="1" vertex="1">
          <mxGeometry x="520" y="1020" width="80" height="40" as="geometry" />
        </mxCell>
        <mxCell id="WXWv_Z7D5VTuuF9bMm1k-110" style="edgeStyle=orthogonalEdgeStyle;rounded=0;orthogonalLoop=1;jettySize=auto;html=1;" parent="1" target="WXWv_Z7D5VTuuF9bMm1k-61" edge="1">
          <mxGeometry relative="1" as="geometry">
            <mxPoint x="440" y="450" as="sourcePoint" />
          </mxGeometry>
        </mxCell>
        <mxCell id="WXWv_Z7D5VTuuF9bMm1k-111" value="stripe&lt;br&gt;zoom&lt;br&gt;gcal" style="ellipse;shape=cloud;whiteSpace=wrap;html=1;" parent="1" vertex="1">
          <mxGeometry x="930" y="706" width="120" height="80" as="geometry" />
        </mxCell>
        <mxCell id="WXWv_Z7D5VTuuF9bMm1k-113" value="Auth0" style="ellipse;shape=cloud;whiteSpace=wrap;html=1;" parent="1" vertex="1">
          <mxGeometry x="930" y="566" width="120" height="80" as="geometry" />
        </mxCell>
        <mxCell id="WXWv_Z7D5VTuuF9bMm1k-116" value="" style="edgeStyle=orthogonalEdgeStyle;rounded=0;orthogonalLoop=1;jettySize=auto;html=1;entryX=0.5;entryY=0;entryDx=0;entryDy=0;" parent="1" source="WXWv_Z7D5VTuuF9bMm1k-61" target="WXWv_Z7D5VTuuF9bMm1k-115" edge="1">
          <mxGeometry relative="1" as="geometry">
            <mxPoint x="490" y="560" as="sourcePoint" />
            <mxPoint x="640" y="630" as="targetPoint" />
          </mxGeometry>
        </mxCell>
        <mxCell id="WXWv_Z7D5VTuuF9bMm1k-117" value="HTTP:80 /api" style="edgeLabel;html=1;align=center;verticalAlign=middle;resizable=0;points=[];" parent="WXWv_Z7D5VTuuF9bMm1k-116" vertex="1" connectable="0">
          <mxGeometry x="-0.2455" y="-1" relative="1" as="geometry">
            <mxPoint x="-23" y="9" as="offset" />
          </mxGeometry>
        </mxCell>
        <mxCell id="WXWv_Z7D5VTuuF9bMm1k-118" style="edgeStyle=orthogonalEdgeStyle;rounded=0;orthogonalLoop=1;jettySize=auto;html=1;entryX=0.5;entryY=0;entryDx=0;entryDy=0;exitX=0.5;exitY=1;exitDx=0;exitDy=0;" parent="1" source="WXWv_Z7D5VTuuF9bMm1k-115" target="WXWv_Z7D5VTuuF9bMm1k-45" edge="1">
          <mxGeometry relative="1" as="geometry">
            <Array as="points">
              <mxPoint x="640" y="620" />
              <mxPoint x="640" y="620" />
            </Array>
          </mxGeometry>
        </mxCell>
        <mxCell id="WXWv_Z7D5VTuuF9bMm1k-115" value="ApiGTW&lt;br&gt;krakenD" style="rounded=1;whiteSpace=wrap;html=1;" parent="1" vertex="1">
          <mxGeometry x="590" y="595" width="100" height="30" as="geometry" />
        </mxCell>
        <mxCell id="WXWv_Z7D5VTuuF9bMm1k-119" value="Analytis" style="ellipse;shape=cloud;whiteSpace=wrap;html=1;" parent="1" vertex="1">
          <mxGeometry x="-180" y="705" width="120" height="80" as="geometry" />
        </mxCell>
      </root>
    </mxGraphModel>
  </diagram>
  <diagram id="TmCQAXL3BmwcXLx1Tx1r" name="Page-2">
    <mxGraphModel dx="199" dy="-426" grid="1" gridSize="10" guides="1" tooltips="1" connect="1" arrows="1" fold="1" page="1" pageScale="1" pageWidth="827" pageHeight="1169" math="0" shadow="0">
      <root>
        <mxCell id="0" />
        <mxCell id="1" parent="0" />
        <mxCell id="hSZeHdUM2WPnme-ownG9-36" value="VM" style="rounded=0;whiteSpace=wrap;html=1;verticalAlign=top;" vertex="1" parent="1">
          <mxGeometry x="910" y="1230" width="510" height="590" as="geometry" />
        </mxCell>
        <mxCell id="hSZeHdUM2WPnme-ownG9-8" value="docker" style="rounded=0;whiteSpace=wrap;html=1;fillColor=#dae8fc;strokeColor=#6c8ebf;verticalAlign=top;" vertex="1" parent="1">
          <mxGeometry x="920" y="1259" width="440" height="551" as="geometry" />
        </mxCell>
        <mxCell id="hSZeHdUM2WPnme-ownG9-7" value="net: revproxy" style="rounded=0;whiteSpace=wrap;html=1;fillColor=#f5f5f5;fontColor=#333333;strokeColor=#666666;verticalAlign=top;" vertex="1" parent="1">
          <mxGeometry x="950" y="1290" width="340" height="500" as="geometry" />
        </mxCell>
        <mxCell id="hSZeHdUM2WPnme-ownG9-31" value="net: frontend" style="rounded=0;whiteSpace=wrap;html=1;fillColor=none;fontColor=#333333;strokeColor=#666666;verticalAlign=top;" vertex="1" parent="1">
          <mxGeometry x="960" y="1410" width="320" height="180" as="geometry" />
        </mxCell>
        <mxCell id="hSZeHdUM2WPnme-ownG9-1" value="global_revproxy" style="rounded=1;whiteSpace=wrap;html=1;" vertex="1" parent="1">
          <mxGeometry x="980" y="1320" width="230" height="60" as="geometry" />
        </mxCell>
        <mxCell id="hSZeHdUM2WPnme-ownG9-2" value="fe_revproxy" style="rounded=1;whiteSpace=wrap;html=1;" vertex="1" parent="1">
          <mxGeometry x="980" y="1440" width="230" height="60" as="geometry" />
        </mxCell>
        <mxCell id="hSZeHdUM2WPnme-ownG9-3" value="be_revproxy" style="rounded=1;whiteSpace=wrap;html=1;" vertex="1" parent="1">
          <mxGeometry x="980" y="1630" width="230" height="60" as="geometry" />
        </mxCell>
        <mxCell id="hSZeHdUM2WPnme-ownG9-11" style="edgeStyle=orthogonalEdgeStyle;rounded=0;orthogonalLoop=1;jettySize=auto;html=1;endArrow=none;endFill=0;dashed=1;" edge="1" parent="1" source="hSZeHdUM2WPnme-ownG9-4" target="hSZeHdUM2WPnme-ownG9-10">
          <mxGeometry relative="1" as="geometry" />
        </mxCell>
        <mxCell id="hSZeHdUM2WPnme-ownG9-4" value="80" style="rounded=0;whiteSpace=wrap;html=1;" vertex="1" parent="1">
          <mxGeometry x="1160" y="1330" width="50" height="20" as="geometry" />
        </mxCell>
        <mxCell id="hSZeHdUM2WPnme-ownG9-10" value="5050" style="rounded=0;whiteSpace=wrap;html=1;" vertex="1" parent="1">
          <mxGeometry x="1360" y="1330" width="40" height="20" as="geometry" />
        </mxCell>
        <mxCell id="hSZeHdUM2WPnme-ownG9-12" value="3000" style="rounded=0;whiteSpace=wrap;html=1;" vertex="1" parent="1">
          <mxGeometry x="1160" y="1450" width="50" height="20" as="geometry" />
        </mxCell>
        <mxCell id="hSZeHdUM2WPnme-ownG9-18" style="edgeStyle=orthogonalEdgeStyle;rounded=0;orthogonalLoop=1;jettySize=auto;html=1;dashed=1;endArrow=none;endFill=0;" edge="1" parent="1" source="hSZeHdUM2WPnme-ownG9-13" target="hSZeHdUM2WPnme-ownG9-17">
          <mxGeometry relative="1" as="geometry" />
        </mxCell>
        <mxCell id="hSZeHdUM2WPnme-ownG9-13" value="8080" style="rounded=0;whiteSpace=wrap;html=1;" vertex="1" parent="1">
          <mxGeometry x="1160" y="1470" width="50" height="20" as="geometry" />
        </mxCell>
        <mxCell id="hSZeHdUM2WPnme-ownG9-16" style="edgeStyle=orthogonalEdgeStyle;rounded=0;orthogonalLoop=1;jettySize=auto;html=1;dashed=1;endArrow=none;endFill=0;" edge="1" parent="1" source="hSZeHdUM2WPnme-ownG9-14" target="hSZeHdUM2WPnme-ownG9-15">
          <mxGeometry relative="1" as="geometry" />
        </mxCell>
        <mxCell id="hSZeHdUM2WPnme-ownG9-14" value="3000" style="rounded=0;whiteSpace=wrap;html=1;" vertex="1" parent="1">
          <mxGeometry x="1210" y="1450" width="50" height="20" as="geometry" />
        </mxCell>
        <mxCell id="hSZeHdUM2WPnme-ownG9-15" value="3000" style="rounded=0;whiteSpace=wrap;html=1;" vertex="1" parent="1">
          <mxGeometry x="1360" y="1450" width="50" height="20" as="geometry" />
        </mxCell>
        <mxCell id="hSZeHdUM2WPnme-ownG9-17" value="3080" style="rounded=0;whiteSpace=wrap;html=1;" vertex="1" parent="1">
          <mxGeometry x="1360" y="1470" width="50" height="20" as="geometry" />
        </mxCell>
        <mxCell id="hSZeHdUM2WPnme-ownG9-19" value="3000" style="rounded=0;whiteSpace=wrap;html=1;" vertex="1" parent="1">
          <mxGeometry x="1160" y="1640" width="50" height="20" as="geometry" />
        </mxCell>
        <mxCell id="hSZeHdUM2WPnme-ownG9-20" style="edgeStyle=orthogonalEdgeStyle;rounded=0;orthogonalLoop=1;jettySize=auto;html=1;dashed=1;endArrow=none;endFill=0;" edge="1" parent="1" source="hSZeHdUM2WPnme-ownG9-21" target="hSZeHdUM2WPnme-ownG9-25">
          <mxGeometry relative="1" as="geometry" />
        </mxCell>
        <mxCell id="hSZeHdUM2WPnme-ownG9-21" value="8080" style="rounded=0;whiteSpace=wrap;html=1;" vertex="1" parent="1">
          <mxGeometry x="1160" y="1660" width="50" height="20" as="geometry" />
        </mxCell>
        <mxCell id="hSZeHdUM2WPnme-ownG9-22" style="edgeStyle=orthogonalEdgeStyle;rounded=0;orthogonalLoop=1;jettySize=auto;html=1;dashed=1;endArrow=none;endFill=0;" edge="1" parent="1" source="hSZeHdUM2WPnme-ownG9-23" target="hSZeHdUM2WPnme-ownG9-24">
          <mxGeometry relative="1" as="geometry" />
        </mxCell>
        <mxCell id="hSZeHdUM2WPnme-ownG9-23" value="3001" style="rounded=0;whiteSpace=wrap;html=1;" vertex="1" parent="1">
          <mxGeometry x="1210" y="1640" width="50" height="20" as="geometry" />
        </mxCell>
        <mxCell id="hSZeHdUM2WPnme-ownG9-24" value="3001" style="rounded=0;whiteSpace=wrap;html=1;" vertex="1" parent="1">
          <mxGeometry x="1360" y="1640" width="50" height="20" as="geometry" />
        </mxCell>
        <mxCell id="hSZeHdUM2WPnme-ownG9-25" value="3081" style="rounded=0;whiteSpace=wrap;html=1;" vertex="1" parent="1">
          <mxGeometry x="1360" y="1660" width="50" height="20" as="geometry" />
        </mxCell>
        <mxCell id="hSZeHdUM2WPnme-ownG9-28" value="ui" style="rounded=1;whiteSpace=wrap;html=1;" vertex="1" parent="1">
          <mxGeometry x="980" y="1520" width="230" height="60" as="geometry" />
        </mxCell>
        <mxCell id="hSZeHdUM2WPnme-ownG9-32" value="net: backend" style="rounded=0;whiteSpace=wrap;html=1;fillColor=none;fontColor=#333333;strokeColor=#666666;verticalAlign=top;" vertex="1" parent="1">
          <mxGeometry x="960" y="1600" width="320" height="180" as="geometry" />
        </mxCell>
        <mxCell id="hSZeHdUM2WPnme-ownG9-33" value="app" style="rounded=1;whiteSpace=wrap;html=1;" vertex="1" parent="1">
          <mxGeometry x="980" y="1710" width="230" height="60" as="geometry" />
        </mxCell>
        <mxCell id="hSZeHdUM2WPnme-ownG9-37" value="80" style="rounded=0;whiteSpace=wrap;html=1;" vertex="1" parent="1">
          <mxGeometry x="1160" y="1720" width="50" height="20" as="geometry" />
        </mxCell>
        <mxCell id="hSZeHdUM2WPnme-ownG9-38" value="8070" style="rounded=0;whiteSpace=wrap;html=1;" vertex="1" parent="1">
          <mxGeometry x="1360" y="1720" width="50" height="20" as="geometry" />
        </mxCell>
      </root>
    </mxGraphModel>
  </diagram>
</mxfile>
